<svg version="1.1" xmlns="http://www.w3.org/2000/svg" xmlns:xlink="http://www.w3.org/1999/xlink" width="884" height="620"><defs/><g><text fill="#eeeeee" stroke="none" font-family="Arial" font-size="24px" font-style="normal" font-weight="normal" text-decoration="none" x="0" y="0">UNREGISTERED</text><text fill="#eeeeee" stroke="none" font-family="Arial" font-size="24px" font-style="normal" font-weight="normal" text-decoration="none" x="0" y="30">UNREGISTERED</text><text fill="#eeeeee" stroke="none" font-family="Arial" font-size="24px" font-style="normal" font-weight="normal" text-decoration="none" x="0" y="60">UNREGISTERED</text><text fill="#eeeeee" stroke="none" font-family="Arial" font-size="24px" font-style="normal" font-weight="normal" text-decoration="none" x="0" y="90">UNREGISTERED</text><text fill="#eeeeee" stroke="none" font-family="Arial" font-size="24px" font-style="normal" font-weight="normal" text-decoration="none" x="0" y="120">UNREGISTERED</text><text fill="#eeeeee" stroke="none" font-family="Arial" font-size="24px" font-style="normal" font-weight="normal" text-decoration="none" x="0" y="150">UNREGISTERED</text><text fill="#eeeeee" stroke="none" font-family="Arial" font-size="24px" font-style="normal" font-weight="normal" text-decoration="none" x="0" y="180">UNREGISTERED</text><text fill="#eeeeee" stroke="none" font-family="Arial" font-size="24px" font-style="normal" font-weight="normal" text-decoration="none" x="0" y="210">UNREGISTERED</text><text fill="#eeeeee" stroke="none" font-family="Arial" font-size="24px" font-style="normal" font-weight="normal" text-decoration="none" x="0" y="240">UNREGISTERED</text><text fill="#eeeeee" stroke="none" font-family="Arial" font-size="24px" font-style="normal" font-weight="normal" text-decoration="none" x="0" y="270">UNREGISTERED</text><text fill="#eeeeee" stroke="none" font-family="Arial" font-size="24px" font-style="normal" font-weight="normal" text-decoration="none" x="0" y="300">UNREGISTERED</text><text fill="#eeeeee" stroke="none" font-family="Arial" font-size="24px" font-style="normal" font-weight="normal" text-decoration="none" x="0" y="330">UNREGISTERED</text><text fill="#eeeeee" stroke="none" font-family="Arial" font-size="24px" font-style="normal" font-weight="normal" text-decoration="none" x="0" y="360">UNREGISTERED</text><text fill="#eeeeee" stroke="none" font-family="Arial" font-size="24px" font-style="normal" font-weight="normal" text-decoration="none" x="0" y="390">UNREGISTERED</text><text fill="#eeeeee" stroke="none" font-family="Arial" font-size="24px" font-style="normal" font-weight="normal" text-decoration="none" x="0" y="420">UNREGISTERED</text><text fill="#eeeeee" stroke="none" font-family="Arial" font-size="24px" font-style="normal" font-weight="normal" text-decoration="none" x="0" y="450">UNREGISTERED</text><text fill="#eeeeee" stroke="none" font-family="Arial" font-size="24px" font-style="normal" font-weight="normal" text-decoration="none" x="0" y="480">UNREGISTERED</text><text fill="#eeeeee" stroke="none" font-family="Arial" font-size="24px" font-style="normal" font-weight="normal" text-decoration="none" x="0" y="510">UNREGISTERED</text><text fill="#eeeeee" stroke="none" font-family="Arial" font-size="24px" font-style="normal" font-weight="normal" text-decoration="none" x="0" y="540">UNREGISTERED</text><text fill="#eeeeee" stroke="none" font-family="Arial" font-size="24px" font-style="normal" font-weight="normal" text-decoration="none" x="0" y="570">UNREGISTERED</text><text fill="#eeeeee" stroke="none" font-family="Arial" font-size="24px" font-style="normal" font-weight="normal" text-decoration="none" x="0" y="600">UNREGISTERED</text><text fill="#eeeeee" stroke="none" font-family="Arial" font-size="24px" font-style="normal" font-weight="normal" text-decoration="none" x="200" y="0">UNREGISTERED</text><text fill="#eeeeee" stroke="none" font-family="Arial" font-size="24px" font-style="normal" font-weight="normal" text-decoration="none" x="200" y="30">UNREGISTERED</text><text fill="#eeeeee" stroke="none" font-family="Arial" font-size="24px" font-style="normal" font-weight="normal" text-decoration="none" x="200" y="60">UNREGISTERED</text><text fill="#eeeeee" stroke="none" font-family="Arial" font-size="24px" font-style="normal" font-weight="normal" text-decoration="none" x="200" y="90">UNREGISTERED</text><text fill="#eeeeee" stroke="none" font-family="Arial" font-size="24px" font-style="normal" font-weight="normal" text-decoration="none" x="200" y="120">UNREGISTERED</text><text fill="#eeeeee" stroke="none" font-family="Arial" font-size="24px" font-style="normal" font-weight="normal" text-decoration="none" x="200" y="150">UNREGISTERED</text><text fill="#eeeeee" stroke="none" font-family="Arial" font-size="24px" font-style="normal" font-weight="normal" text-decoration="none" x="200" y="180">UNREGISTERED</text><text fill="#eeeeee" stroke="none" font-family="Arial" font-size="24px" font-style="normal" font-weight="normal" text-decoration="none" x="200" y="210">UNREGISTERED</text><text fill="#eeeeee" stroke="none" font-family="Arial" font-size="24px" font-style="normal" font-weight="normal" text-decoration="none" x="200" y="240">UNREGISTERED</text><text fill="#eeeeee" stroke="none" font-family="Arial" font-size="24px" font-style="normal" font-weight="normal" text-decoration="none" x="200" y="270">UNREGISTERED</text><text fill="#eeeeee" stroke="none" font-family="Arial" font-size="24px" font-style="normal" font-weight="normal" text-decoration="none" x="200" y="300">UNREGISTERED</text><text fill="#eeeeee" stroke="none" font-family="Arial" font-size="24px" font-style="normal" font-weight="normal" text-decoration="none" x="200" y="330">UNREGISTERED</text><text fill="#eeeeee" stroke="none" font-family="Arial" font-size="24px" font-style="normal" font-weight="normal" text-decoration="none" x="200" y="360">UNREGISTERED</text><text fill="#eeeeee" stroke="none" font-family="Arial" font-size="24px" font-style="normal" font-weight="normal" text-decoration="none" x="200" y="390">UNREGISTERED</text><text fill="#eeeeee" stroke="none" font-family="Arial" font-size="24px" font-style="normal" font-weight="normal" text-decoration="none" x="200" y="420">UNREGISTERED</text><text fill="#eeeeee" stroke="none" font-family="Arial" font-size="24px" font-style="normal" font-weight="normal" text-decoration="none" x="200" y="450">UNREGISTERED</text><text fill="#eeeeee" stroke="none" font-family="Arial" font-size="24px" font-style="normal" font-weight="normal" text-decoration="none" x="200" y="480">UNREGISTERED</text><text fill="#eeeeee" stroke="none" font-family="Arial" font-size="24px" font-style="normal" font-weight="normal" text-decoration="none" x="200" y="510">UNREGISTERED</text><text fill="#eeeeee" stroke="none" font-family="Arial" font-size="24px" font-style="normal" font-weight="normal" text-decoration="none" x="200" y="540">UNREGISTERED</text><text fill="#eeeeee" stroke="none" font-family="Arial" font-size="24px" font-style="normal" font-weight="normal" text-decoration="none" x="200" y="570">UNREGISTERED</text><text fill="#eeeeee" stroke="none" font-family="Arial" font-size="24px" font-style="normal" font-weight="normal" text-decoration="none" x="200" y="600">UNREGISTERED</text><text fill="#eeeeee" stroke="none" font-family="Arial" font-size="24px" font-style="normal" font-weight="normal" text-decoration="none" x="400" y="0">UNREGISTERED</text><text fill="#eeeeee" stroke="none" font-family="Arial" font-size="24px" font-style="normal" font-weight="normal" text-decoration="none" x="400" y="30">UNREGISTERED</text><text fill="#eeeeee" stroke="none" font-family="Arial" font-size="24px" font-style="normal" font-weight="normal" text-decoration="none" x="400" y="60">UNREGISTERED</text><text fill="#eeeeee" stroke="none" font-family="Arial" font-size="24px" font-style="normal" font-weight="normal" text-decoration="none" x="400" y="90">UNREGISTERED</text><text fill="#eeeeee" stroke="none" font-family="Arial" font-size="24px" font-style="normal" font-weight="normal" text-decoration="none" x="400" y="120">UNREGISTERED</text><text fill="#eeeeee" stroke="none" font-family="Arial" font-size="24px" font-style="normal" font-weight="normal" text-decoration="none" x="400" y="150">UNREGISTERED</text><text fill="#eeeeee" stroke="none" font-family="Arial" font-size="24px" font-style="normal" font-weight="normal" text-decoration="none" x="400" y="180">UNREGISTERED</text><text fill="#eeeeee" stroke="none" font-family="Arial" font-size="24px" font-style="normal" font-weight="normal" text-decoration="none" x="400" y="210">UNREGISTERED</text><text fill="#eeeeee" stroke="none" font-family="Arial" font-size="24px" font-style="normal" font-weight="normal" text-decoration="none" x="400" y="240">UNREGISTERED</text><text fill="#eeeeee" stroke="none" font-family="Arial" font-size="24px" font-style="normal" font-weight="normal" text-decoration="none" x="400" y="270">UNREGISTERED</text><text fill="#eeeeee" stroke="none" font-family="Arial" font-size="24px" font-style="normal" font-weight="normal" text-decoration="none" x="400" y="300">UNREGISTERED</text><text fill="#eeeeee" stroke="none" font-family="Arial" font-size="24px" font-style="normal" font-weight="normal" text-decoration="none" x="400" y="330">UNREGISTERED</text><text fill="#eeeeee" stroke="none" font-family="Arial" font-size="24px" font-style="normal" font-weight="normal" text-decoration="none" x="400" y="360">UNREGISTERED</text><text fill="#eeeeee" stroke="none" font-family="Arial" font-size="24px" font-style="normal" font-weight="normal" text-decoration="none" x="400" y="390">UNREGISTERED</text><text fill="#eeeeee" stroke="none" font-family="Arial" font-size="24px" font-style="normal" font-weight="normal" text-decoration="none" x="400" y="420">UNREGISTERED</text><text fill="#eeeeee" stroke="none" font-family="Arial" font-size="24px" font-style="normal" font-weight="normal" text-decoration="none" x="400" y="450">UNREGISTERED</text><text fill="#eeeeee" stroke="none" font-family="Arial" font-size="24px" font-style="normal" font-weight="normal" text-decoration="none" x="400" y="480">UNREGISTERED</text><text fill="#eeeeee" stroke="none" font-family="Arial" font-size="24px" font-style="normal" font-weight="normal" text-decoration="none" x="400" y="510">UNREGISTERED</text><text fill="#eeeeee" stroke="none" font-family="Arial" font-size="24px" font-style="normal" font-weight="normal" text-decoration="none" x="400" y="540">UNREGISTERED</text><text fill="#eeeeee" stroke="none" font-family="Arial" font-size="24px" font-style="normal" font-weight="normal" text-decoration="none" x="400" y="570">UNREGISTERED</text><text fill="#eeeeee" stroke="none" font-family="Arial" font-size="24px" font-style="normal" font-weight="normal" text-decoration="none" x="400" y="600">UNREGISTERED</text><text fill="#eeeeee" stroke="none" font-family="Arial" font-size="24px" font-style="normal" font-weight="normal" text-decoration="none" x="600" y="0">UNREGISTERED</text><text fill="#eeeeee" stroke="none" font-family="Arial" font-size="24px" font-style="normal" font-weight="normal" text-decoration="none" x="600" y="30">UNREGISTERED</text><text fill="#eeeeee" stroke="none" font-family="Arial" font-size="24px" font-style="normal" font-weight="normal" text-decoration="none" x="600" y="60">UNREGISTERED</text><text fill="#eeeeee" stroke="none" font-family="Arial" font-size="24px" font-style="normal" font-weight="normal" text-decoration="none" x="600" y="90">UNREGISTERED</text><text fill="#eeeeee" stroke="none" font-family="Arial" font-size="24px" font-style="normal" font-weight="normal" text-decoration="none" x="600" y="120">UNREGISTERED</text><text fill="#eeeeee" stroke="none" font-family="Arial" font-size="24px" font-style="normal" font-weight="normal" text-decoration="none" x="600" y="150">UNREGISTERED</text><text fill="#eeeeee" stroke="none" font-family="Arial" font-size="24px" font-style="normal" font-weight="normal" text-decoration="none" x="600" y="180">UNREGISTERED</text><text fill="#eeeeee" stroke="none" font-family="Arial" font-size="24px" font-style="normal" font-weight="normal" text-decoration="none" x="600" y="210">UNREGISTERED</text><text fill="#eeeeee" stroke="none" font-family="Arial" font-size="24px" font-style="normal" font-weight="normal" text-decoration="none" x="600" y="240">UNREGISTERED</text><text fill="#eeeeee" stroke="none" font-family="Arial" font-size="24px" font-style="normal" font-weight="normal" text-decoration="none" x="600" y="270">UNREGISTERED</text><text fill="#eeeeee" stroke="none" font-family="Arial" font-size="24px" font-style="normal" font-weight="normal" text-decoration="none" x="600" y="300">UNREGISTERED</text><text fill="#eeeeee" stroke="none" font-family="Arial" font-size="24px" font-style="normal" font-weight="normal" text-decoration="none" x="600" y="330">UNREGISTERED</text><text fill="#eeeeee" stroke="none" font-family="Arial" font-size="24px" font-style="normal" font-weight="normal" text-decoration="none" x="600" y="360">UNREGISTERED</text><text fill="#eeeeee" stroke="none" font-family="Arial" font-size="24px" font-style="normal" font-weight="normal" text-decoration="none" x="600" y="390">UNREGISTERED</text><text fill="#eeeeee" stroke="none" font-family="Arial" font-size="24px" font-style="normal" font-weight="normal" text-decoration="none" x="600" y="420">UNREGISTERED</text><text fill="#eeeeee" stroke="none" font-family="Arial" font-size="24px" font-style="normal" font-weight="normal" text-decoration="none" x="600" y="450">UNREGISTERED</text><text fill="#eeeeee" stroke="none" font-family="Arial" font-size="24px" font-style="normal" font-weight="normal" text-decoration="none" x="600" y="480">UNREGISTERED</text><text fill="#eeeeee" stroke="none" font-family="Arial" font-size="24px" font-style="normal" font-weight="normal" text-decoration="none" x="600" y="510">UNREGISTERED</text><text fill="#eeeeee" stroke="none" font-family="Arial" font-size="24px" font-style="normal" font-weight="normal" text-decoration="none" x="600" y="540">UNREGISTERED</text><text fill="#eeeeee" stroke="none" font-family="Arial" font-size="24px" font-style="normal" font-weight="normal" text-decoration="none" x="600" y="570">UNREGISTERED</text><text fill="#eeeeee" stroke="none" font-family="Arial" font-size="24px" font-style="normal" font-weight="normal" text-decoration="none" x="600" y="600">UNREGISTERED</text><text fill="#eeeeee" stroke="none" font-family="Arial" font-size="24px" font-style="normal" font-weight="normal" text-decoration="none" x="800" y="0">UNREGISTERED</text><text fill="#eeeeee" stroke="none" font-family="Arial" font-size="24px" font-style="normal" font-weight="normal" text-decoration="none" x="800" y="30">UNREGISTERED</text><text fill="#eeeeee" stroke="none" font-family="Arial" font-size="24px" font-style="normal" font-weight="normal" text-decoration="none" x="800" y="60">UNREGISTERED</text><text fill="#eeeeee" stroke="none" font-family="Arial" font-size="24px" font-style="normal" font-weight="normal" text-decoration="none" x="800" y="90">UNREGISTERED</text><text fill="#eeeeee" stroke="none" font-family="Arial" font-size="24px" font-style="normal" font-weight="normal" text-decoration="none" x="800" y="120">UNREGISTERED</text><text fill="#eeeeee" stroke="none" font-family="Arial" font-size="24px" font-style="normal" font-weight="normal" text-decoration="none" x="800" y="150">UNREGISTERED</text><text fill="#eeeeee" stroke="none" font-family="Arial" font-size="24px" font-style="normal" font-weight="normal" text-decoration="none" x="800" y="180">UNREGISTERED</text><text fill="#eeeeee" stroke="none" font-family="Arial" font-size="24px" font-style="normal" font-weight="normal" text-decoration="none" x="800" y="210">UNREGISTERED</text><text fill="#eeeeee" stroke="none" font-family="Arial" font-size="24px" font-style="normal" font-weight="normal" text-decoration="none" x="800" y="240">UNREGISTERED</text><text fill="#eeeeee" stroke="none" font-family="Arial" font-size="24px" font-style="normal" font-weight="normal" text-decoration="none" x="800" y="270">UNREGISTERED</text><text fill="#eeeeee" stroke="none" font-family="Arial" font-size="24px" font-style="normal" font-weight="normal" text-decoration="none" x="800" y="300">UNREGISTERED</text><text fill="#eeeeee" stroke="none" font-family="Arial" font-size="24px" font-style="normal" font-weight="normal" text-decoration="none" x="800" y="330">UNREGISTERED</text><text fill="#eeeeee" stroke="none" font-family="Arial" font-size="24px" font-style="normal" font-weight="normal" text-decoration="none" x="800" y="360">UNREGISTERED</text><text fill="#eeeeee" stroke="none" font-family="Arial" font-size="24px" font-style="normal" font-weight="normal" text-decoration="none" x="800" y="390">UNREGISTERED</text><text fill="#eeeeee" stroke="none" font-family="Arial" font-size="24px" font-style="normal" font-weight="normal" text-decoration="none" x="800" y="420">UNREGISTERED</text><text fill="#eeeeee" stroke="none" font-family="Arial" font-size="24px" font-style="normal" font-weight="normal" text-decoration="none" x="800" y="450">UNREGISTERED</text><text fill="#eeeeee" stroke="none" font-family="Arial" font-size="24px" font-style="normal" font-weight="normal" text-decoration="none" x="800" y="480">UNREGISTERED</text><text fill="#eeeeee" stroke="none" font-family="Arial" font-size="24px" font-style="normal" font-weight="normal" text-decoration="none" x="800" y="510">UNREGISTERED</text><text fill="#eeeeee" stroke="none" font-family="Arial" font-size="24px" font-style="normal" font-weight="normal" text-decoration="none" x="800" y="540">UNREGISTERED</text><text fill="#eeeeee" stroke="none" font-family="Arial" font-size="24px" font-style="normal" font-weight="normal" text-decoration="none" x="800" y="570">UNREGISTERED</text><text fill="#eeeeee" stroke="none" font-family="Arial" font-size="24px" font-style="normal" font-weight="normal" text-decoration="none" x="800" y="600">UNREGISTERED</text><g transform="translate(-6,-102) scale(1,1)"><rect fill="#ffffff" stroke="none" x="16" y="112" width="256" height="21"/></g><g transform="translate(-6,-102) scale(1,1)"><path fill="none" stroke="#000000" d="M 16 112 L 272 112 L 272 133 L 16 133 L 16 112 Z Z" stroke-miterlimit="10" stroke-width="2"/></g><g transform="translate(-6,-102) scale(1,1)"><path fill="none" stroke="#000000" d="M 16 712 L 16 112 L 272 112 L 272 712" stroke-miterlimit="10" stroke-width="2"/></g><g transform="translate(-6,-102) scale(1,1)"><g><path fill="none" stroke="none"/><text fill="#000000" stroke="none" font-family="Arial" font-size="13px" font-style="normal" font-weight="normal" text-decoration="none" x="102.81640625" y="126">administrateur</text></g></g><g transform="translate(-6,-102) scale(1,1)"><rect fill="#ffffff" stroke="none" x="272" y="112" width="368" height="21"/></g><g transform="translate(-6,-102) scale(1,1)"><path fill="none" stroke="#000000" d="M 272 112 L 640 112 L 640 133 L 272 133 L 272 112 Z Z" stroke-miterlimit="10" stroke-width="2"/></g><g transform="translate(-6,-102) scale(1,1)"><path fill="none" stroke="#000000" d="M 272 704 L 272 112 L 640 112 L 640 704" stroke-miterlimit="10" stroke-width="2"/></g><g transform="translate(-6,-102) scale(1,1)"><g><path fill="none" stroke="none"/><text fill="#000000" stroke="none" font-family="Arial" font-size="13px" font-style="normal" font-weight="normal" text-decoration="none" x="449.858642578125" y="126">SI</text></g></g><g transform="translate(-6,-102) scale(1,1)"><rect fill="#ffffff" stroke="none" x="640" y="112" width="240" height="21"/></g><g transform="translate(-6,-102) scale(1,1)"><path fill="none" stroke="#000000" d="M 640 112 L 880 112 L 880 133 L 640 133 L 640 112 Z Z" stroke-miterlimit="10" stroke-width="2"/></g><g transform="translate(-6,-102) scale(1,1)"><path fill="none" stroke="#000000" d="M 640 696 L 640 112 L 880 112 L 880 696" stroke-miterlimit="10" stroke-width="2"/></g><g transform="translate(-6,-102) scale(1,1)"><g><path fill="none" stroke="none"/><text fill="#000000" stroke="none" font-family="Arial" font-size="13px" font-style="normal" font-weight="normal" text-decoration="none" x="709.40283203125" y="126">Base de données</text></g></g><g transform="translate(-6,-102) scale(1,1)"><path fill="#C0C0C0" stroke="none" d="M 439 168.5 C 439 163.2532944 443.2532944 159 448.5 159 C 453.7467056 159 458 163.2532944 458 168.5 C 458 173.7467056 453.7467056 178 448.5 178 C 443.2532944 178 439 173.7467056 439 168.5 Z" opacity="0.2"/></g><g transform="translate(-6,-102) scale(1,1)"><path fill="#000000" stroke="none" d="M 432 161.5 C 432 156.2532944 436.2532944 152 441.5 152 C 446.7467056 152 451 156.2532944 451 161.5 C 451 166.7467056 446.7467056 171 441.5 171 C 436.2532944 171 432 166.7467056 432 161.5 Z"/></g><g transform="translate(-6,-102) scale(1,1)"><path fill="#C0C0C0" stroke="none" d="M 401 207 L 517.15625 207 Q 527.15625 207 527.15625 217 L 527.15625 237 Q 527.15625 247 517.15625 247 L 401 247 Q 391 247 391 237 L 391 217 Q 391 207 401 207 Z" opacity="0.2"/></g><g transform="translate(-6,-102) scale(1,1)"><path fill="#ffffff" stroke="none" d="M 394 200 L 510.15625 200 Q 520.15625 200 520.15625 210 L 520.15625 230 Q 520.15625 240 510.15625 240 L 394 240 Q 384 240 384 230 L 384 210 Q 384 200 394 200 Z"/></g><g transform="translate(-6,-102) scale(1,1)"><path fill="none" stroke="#000000" d="M 394 200 L 510.15625 200 Q 520.15625 200 520.15625 210 L 520.15625 230 Q 520.15625 240 510.15625 240 L 394 240 Q 384 240 384 230 L 384 210 Q 384 200 394 200 Z" stroke-miterlimit="10"/></g><g transform="translate(-6,-102) scale(1,1)"><g><path fill="none" stroke="none"/><text fill="#000000" stroke="none" font-family="Arial" font-size="13px" font-style="normal" font-weight="bold" text-decoration="none" x="388.5" y="217.5">envoyer une requete</text></g></g><g transform="translate(-6,-102) scale(1,1)"><path fill="#C0C0C0" stroke="none" d="M 689 207 L 831.1943359375 207 Q 841.1943359375 207 841.1943359375 217 L 841.1943359375 237 Q 841.1943359375 247 831.1943359375 247 L 689 247 Q 679 247 679 237 L 679 217 Q 679 207 689 207 Z" opacity="0.2"/></g><g transform="translate(-6,-102) scale(1,1)"><path fill="#ffffff" stroke="none" d="M 682 200 L 824.1943359375 200 Q 834.1943359375 200 834.1943359375 210 L 834.1943359375 230 Q 834.1943359375 240 824.1943359375 240 L 682 240 Q 672 240 672 230 L 672 210 Q 672 200 682 200 Z"/></g><g transform="translate(-6,-102) scale(1,1)"><path fill="none" stroke="#000000" d="M 682 200 L 824.1943359375 200 Q 834.1943359375 200 834.1943359375 210 L 834.1943359375 230 Q 834.1943359375 240 824.1943359375 240 L 682 240 Q 672 240 672 230 L 672 210 Q 672 200 682 200 Z" stroke-miterlimit="10"/></g><g transform="translate(-6,-102) scale(1,1)"><g><path fill="none" stroke="none"/><text fill="#000000" stroke="none" font-family="Arial" font-size="13px" font-style="normal" font-weight="bold" text-decoration="none" x="680.114990234375" y="218">Executer requete select</text></g></g><g transform="translate(-6,-102) scale(1,1)"><path fill="none" stroke="#000000" d="M 521 220 L 671 220" stroke-miterlimit="10"/></g><g transform="translate(-6,-102) scale(1,1)"><path fill="none" stroke="#000000" d="M 660.8373251423759 224.209517756016 L 671 220 L 660.8373251423758 215.790482243984" stroke-miterlimit="10"/></g><g transform="translate(-6,-102) scale(1,1)"><path fill="#C0C0C0" stroke="none" d="M 463 304.5 L 474.5 295 L 485 304.5 L 474.5 313 L 463 304.5" opacity="0.2"/></g><g transform="translate(-6,-102) scale(1,1)"><path fill="#ffffff" stroke="none" d="M 456 297 L 467 288 L 478 297 L 467 306 L 456 297"/></g><g transform="translate(-6,-102) scale(1,1)"><path fill="none" stroke="#000000" d="M 456 297 L 467 288 L 478 297 L 467 306 L 456 297 L 456 297" stroke-miterlimit="10"/></g><g transform="translate(-6,-102) scale(1,1)"><path fill="none" stroke="#000000" d="M 675 241 L 479 294" stroke-miterlimit="10"/></g><g transform="translate(-6,-102) scale(1,1)"><path fill="none" stroke="#000000" d="M 487.7115101162531 287.2836325670479 L 479 294 L 489.9091568343587 295.4107789207969" stroke-miterlimit="10"/></g><g transform="translate(-6,-102) scale(1,1)"><path fill="#C0C0C0" stroke="none" d="M 295 287 L 295 327 L 389.83447265625 327 L 400.08447265625 307.5 L 389.83447265625 287" opacity="0.2"/></g><g transform="translate(-6,-102) scale(1,1)"><path fill="#ffffff" stroke="none" d="M 288 280 L 288 320 L 382.83447265625 320 L 393.08447265625 300.5 L 382.83447265625 280"/></g><g transform="translate(-6,-102) scale(1,1)"><path fill="none" stroke="#000000" d="M 288 280 L 288 320 L 382.83447265625 320 L 393.08447265625 300.5 L 382.83447265625 280 L 288 280" stroke-miterlimit="10"/></g><g transform="translate(-6,-102) scale(1,1)"><g><path fill="none" stroke="none"/><text fill="#000000" stroke="none" font-family="Arial" font-size="13px" font-style="normal" font-weight="bold" text-decoration="none" x="292.5" y="298">requete échoué</text></g></g><g transform="translate(-6,-102) scale(1,1)"><path fill="none" stroke="#000000" d="M 455 297 L 394 299" stroke-miterlimit="10"/></g><g transform="translate(-6,-102) scale(1,1)"><path fill="none" stroke="#000000" d="M 404.01927406966206 294.45971948917276 L 394 299 L 404.2951597749196 302.8742334995295" stroke-miterlimit="10"/></g><g transform="translate(-6,-102) scale(1,1)"><g><path fill="none" stroke="none"/><text fill="#000000" stroke="none" font-family="Arial" font-size="13px" font-style="normal" font-weight="normal" text-decoration="none" x="412.15087890625" y="291">defaut</text></g></g><g transform="translate(-6,-102) scale(1,1)"><path fill="#C0C0C0" stroke="none" d="M 89 359 L 247.0634765625 359 Q 257.0634765625 359 257.0634765625 369 L 257.0634765625 389 Q 257.0634765625 399 247.0634765625 399 L 89 399 Q 79 399 79 389 L 79 369 Q 79 359 89 359 Z" opacity="0.2"/></g><g transform="translate(-6,-102) scale(1,1)"><path fill="#ffffff" stroke="none" d="M 82 352 L 240.0634765625 352 Q 250.0634765625 352 250.0634765625 362 L 250.0634765625 382 Q 250.0634765625 392 240.0634765625 392 L 82 392 Q 72 392 72 382 L 72 362 Q 72 352 82 352 Z"/></g><g transform="translate(-6,-102) scale(1,1)"><path fill="none" stroke="#000000" d="M 82 352 L 240.0634765625 352 Q 250.0634765625 352 250.0634765625 362 L 250.0634765625 382 Q 250.0634765625 392 240.0634765625 392 L 82 392 Q 72 392 72 382 L 72 362 Q 72 352 82 352 Z" stroke-miterlimit="10"/></g><g transform="translate(-6,-102) scale(1,1)"><g><path fill="none" stroke="none"/><text fill="#000000" stroke="none" font-family="Arial" font-size="13px" font-style="normal" font-weight="bold" text-decoration="none" x="76.5" y="370">valider tableau a supprimer</text></g></g><g transform="translate(-6,-102) scale(1,1)"><path fill="#C0C0C0" stroke="none" d="M 311 415 L 530.24072265625 415 L 530.24072265625 455 L 311 455 L 321.25 435.5" opacity="0.2"/></g><g transform="translate(-6,-102) scale(1,1)"><path fill="#ffffff" stroke="none" d="M 304 408 L 523.24072265625 408 L 523.24072265625 448 L 304 448 L 314.25 428.5"/></g><g transform="translate(-6,-102) scale(1,1)"><path fill="none" stroke="#000000" d="M 304 408 L 523.24072265625 408 L 523.24072265625 448 L 304 448 L 314.25 428.5 L 304 408" stroke-miterlimit="10"/></g><g transform="translate(-6,-102) scale(1,1)"><g><path fill="none" stroke="none"/><text fill="#000000" stroke="none" font-family="Arial" font-size="13px" font-style="normal" font-weight="bold" text-decoration="none" x="308.5" y="426">envoyer message de confirmation</text></g></g><g transform="translate(-6,-102) scale(1,1)"><path fill="none" stroke="#000000" d="M 251 392 L 319 407" stroke-miterlimit="10"/></g><g transform="translate(-6,-102) scale(1,1)"><path fill="none" stroke="#000000" d="M 308.1691356281705 408.9215558693503 L 319 407 L 309.9826771709212 400.70016754221405" stroke-miterlimit="10"/></g><g transform="translate(-6,-102) scale(1,1)"><path fill="#C0C0C0" stroke="none" d="M 153 447 L 204.1181640625 447 Q 214.1181640625 447 214.1181640625 457 L 214.1181640625 477 Q 214.1181640625 487 204.1181640625 487 L 153 487 Q 143 487 143 477 L 143 457 Q 143 447 153 447 Z" opacity="0.2"/></g><g transform="translate(-6,-102) scale(1,1)"><path fill="#ffffff" stroke="none" d="M 146 440 L 197.1181640625 440 Q 207.1181640625 440 207.1181640625 450 L 207.1181640625 470 Q 207.1181640625 480 197.1181640625 480 L 146 480 Q 136 480 136 470 L 136 450 Q 136 440 146 440 Z"/></g><g transform="translate(-6,-102) scale(1,1)"><path fill="none" stroke="#000000" d="M 146 440 L 197.1181640625 440 Q 207.1181640625 440 207.1181640625 450 L 207.1181640625 470 Q 207.1181640625 480 197.1181640625 480 L 146 480 Q 136 480 136 470 L 136 450 Q 136 440 146 440 Z" stroke-miterlimit="10"/></g><g transform="translate(-6,-102) scale(1,1)"><g><path fill="none" stroke="none"/><text fill="#000000" stroke="none" font-family="Arial" font-size="13px" font-style="normal" font-weight="bold" text-decoration="none" x="140.5" y="458">Confirmer</text></g></g><g transform="translate(-6,-102) scale(1,1)"><path fill="none" stroke="#000000" d="M 303 443 L 208 455" stroke-miterlimit="10"/></g><g transform="translate(-6,-102) scale(1,1)"><path fill="none" stroke="#000000" d="M 217.55501955523093 449.5500824502425 L 208 455 L 218.61009277821495 457.90274546553275" stroke-miterlimit="10"/></g><g transform="translate(-6,-102) scale(1,1)"><path fill="#C0C0C0" stroke="none" d="M 377 487 L 466.4326171875 487 Q 476.4326171875 487 476.4326171875 497 L 476.4326171875 517 Q 476.4326171875 527 466.4326171875 527 L 377 527 Q 367 527 367 517 L 367 497 Q 367 487 377 487 Z" opacity="0.2"/></g><g transform="translate(-6,-102) scale(1,1)"><path fill="#ffffff" stroke="none" d="M 370 480 L 459.4326171875 480 Q 469.4326171875 480 469.4326171875 490 L 469.4326171875 510 Q 469.4326171875 520 459.4326171875 520 L 370 520 Q 360 520 360 510 L 360 490 Q 360 480 370 480 Z"/></g><g transform="translate(-6,-102) scale(1,1)"><path fill="none" stroke="#000000" d="M 370 480 L 459.4326171875 480 Q 469.4326171875 480 469.4326171875 490 L 469.4326171875 510 Q 469.4326171875 520 459.4326171875 520 L 370 520 Q 360 520 360 510 L 360 490 Q 360 480 370 480 Z" stroke-miterlimit="10"/></g><g transform="translate(-6,-102) scale(1,1)"><g><path fill="none" stroke="none"/><text fill="#000000" stroke="none" font-family="Arial" font-size="13px" font-style="normal" font-weight="bold" text-decoration="none" x="364.5" y="497.5">envoyer requete</text></g></g><g transform="translate(-6,-102) scale(1,1)"><path fill="#C0C0C0" stroke="none" d="M 689 487 L 823.234375 487 Q 833.234375 487 833.234375 497 L 833.234375 517 Q 833.234375 527 823.234375 527 L 689 527 Q 679 527 679 517 L 679 497 Q 679 487 689 487 Z" opacity="0.2"/></g><g transform="translate(-6,-102) scale(1,1)"><path fill="#ffffff" stroke="none" d="M 682 480 L 816.234375 480 Q 826.234375 480 826.234375 490 L 826.234375 510 Q 826.234375 520 816.234375 520 L 682 520 Q 672 520 672 510 L 672 490 Q 672 480 682 480 Z"/></g><g transform="translate(-6,-102) scale(1,1)"><path fill="none" stroke="#000000" d="M 682 480 L 816.234375 480 Q 826.234375 480 826.234375 490 L 826.234375 510 Q 826.234375 520 816.234375 520 L 682 520 Q 672 520 672 510 L 672 490 Q 672 480 682 480 Z" stroke-miterlimit="10"/></g><g transform="translate(-6,-102) scale(1,1)"><g><path fill="none" stroke="none"/><text fill="#000000" stroke="none" font-family="Arial" font-size="13px" font-style="normal" font-weight="bold" text-decoration="none" x="676.5" y="498">executer requete delete</text></g></g><g transform="translate(-6,-102) scale(1,1)"><path fill="none" stroke="#000000" d="M 470 500 L 671 500" stroke-miterlimit="10"/></g><g transform="translate(-6,-102) scale(1,1)"><path fill="none" stroke="#000000" d="M 660.8373251423759 504.209517756016 L 671 500 L 660.8373251423758 495.790482243984" stroke-miterlimit="10"/></g><g transform="translate(-6,-102) scale(1,1)"><path fill="#C0C0C0" stroke="none" d="M 463 592.5 L 474.5 583 L 485 592.5 L 474.5 601 L 463 592.5" opacity="0.2"/></g><g transform="translate(-6,-102) scale(1,1)"><path fill="#ffffff" stroke="none" d="M 456 585 L 467 576 L 478 585 L 467 594 L 456 585"/></g><g transform="translate(-6,-102) scale(1,1)"><path fill="none" stroke="#000000" d="M 456 585 L 467 576 L 478 585 L 467 594 L 456 585 L 456 585" stroke-miterlimit="10"/></g><g transform="translate(-6,-102) scale(1,1)"><path fill="none" stroke="#000000" d="M 679 521 L 479 581" stroke-miterlimit="10"/></g><g transform="translate(-6,-102) scale(1,1)"><path fill="none" stroke="#000000" d="M 487.5244810803434 574.0477901131462 L 479 581 L 489.94367313323374 582.1117636227807" stroke-miterlimit="10"/></g><g transform="translate(-6,-102) scale(1,1)"><path fill="#C0C0C0" stroke="none" d="M 303 575 L 303 615 L 397.83447265625 615 L 408.08447265625 595.5 L 397.83447265625 575" opacity="0.2"/></g><g transform="translate(-6,-102) scale(1,1)"><path fill="#ffffff" stroke="none" d="M 296 568 L 296 608 L 390.83447265625 608 L 401.08447265625 588.5 L 390.83447265625 568"/></g><g transform="translate(-6,-102) scale(1,1)"><path fill="none" stroke="#000000" d="M 296 568 L 296 608 L 390.83447265625 608 L 401.08447265625 588.5 L 390.83447265625 568 L 296 568" stroke-miterlimit="10"/></g><g transform="translate(-6,-102) scale(1,1)"><g><path fill="none" stroke="none"/><text fill="#000000" stroke="none" font-family="Arial" font-size="13px" font-style="normal" font-weight="bold" text-decoration="none" x="300.5" y="586">requete échoué</text></g></g><g transform="translate(-6,-102) scale(1,1)"><path fill="none" stroke="#000000" d="M 455 585 L 402 587" stroke-miterlimit="10"/></g><g transform="translate(-6,-102) scale(1,1)"><path fill="none" stroke="#000000" d="M 411.9967100339717 582.4102518046532 L 402 587 L 412.3141835274455 590.8232993817085" stroke-miterlimit="10"/></g><g transform="translate(-6,-102) scale(1,1)"><g><path fill="none" stroke="none"/><text fill="#000000" stroke="none" font-family="Arial" font-size="13px" font-style="normal" font-weight="normal" text-decoration="none" x="408.5" y="578">defaut</text></g></g><g transform="translate(-6,-102) scale(1,1)"><path fill="#C0C0C0" stroke="none" d="M 503 615 L 503 655 L 609.38720703125 655 L 619.63720703125 635.5 L 609.38720703125 615" opacity="0.2"/></g><g transform="translate(-6,-102) scale(1,1)"><path fill="#ffffff" stroke="none" d="M 496 608 L 496 648 L 602.38720703125 648 L 612.63720703125 628.5 L 602.38720703125 608"/></g><g transform="translate(-6,-102) scale(1,1)"><path fill="none" stroke="#000000" d="M 496 608 L 496 648 L 602.38720703125 648 L 612.63720703125 628.5 L 602.38720703125 608 L 496 608" stroke-miterlimit="10"/></g><g transform="translate(-6,-102) scale(1,1)"><g><path fill="none" stroke="none"/><text fill="#000000" stroke="none" font-family="Arial" font-size="13px" font-style="normal" font-weight="bold" text-decoration="none" x="500.5" y="626">tableau supprimé</text></g></g><g transform="translate(-6,-102) scale(1,1)"><path fill="none" stroke="#000000" d="M 479 591 L 512 607" stroke-miterlimit="10"/></g><g transform="translate(-6,-102) scale(1,1)"><path fill="none" stroke="#000000" d="M 501.01898072408903 606.3540776656041 L 512 607 L 504.6919828684343 598.778510742892" stroke-miterlimit="10"/></g><g transform="translate(-6,-102) scale(1,1)"><g><path fill="none" stroke="none"/><text fill="#000000" stroke="none" font-family="Arial" font-size="13px" font-style="normal" font-weight="normal" text-decoration="none" x="494.5" y="590">ok</text></g></g><g transform="translate(-6,-102) scale(1,1)"><path fill="#C0C0C0" stroke="none" d="M 551 699.5 C 551 692.59644 556.59644 687 563.5 687 C 570.40356 687 576 692.59644 576 699.5 C 576 706.40356 570.40356 712 563.5 712 C 556.59644 712 551 706.40356 551 699.5 Z" opacity="0.2"/></g><g transform="translate(-6,-102) scale(1,1)"><path fill="none" stroke="#000000" d="M 544 692.5 C 544 685.59644 549.59644 680 556.5 680 C 563.40356 680 569 685.59644 569 692.5 C 569 699.40356 563.40356 705 556.5 705 C 549.59644 705 544 699.40356 544 692.5 Z" stroke-miterlimit="10"/></g><g transform="translate(-6,-102) scale(1,1)"><path fill="#000000" stroke="none" d="M 549 692.5 C 549 688.357864 552.357864 685 556.5 685 C 560.642136 685 564 688.357864 564 692.5 C 564 696.642136 560.642136 700 556.5 700 C 552.357864 700 549 696.642136 549 692.5 Z"/></g><g transform="translate(-6,-102) scale(1,1)"><path fill="none" stroke="#000000" d="M 555 649 L 556 679" stroke-miterlimit="10"/></g><g transform="translate(-6,-102) scale(1,1)"><path fill="none" stroke="#000000" d="M 551.4542511303202 668.9832057416654 L 556 679 L 559.8686132944972 668.7027270028594" stroke-miterlimit="10"/></g><g transform="translate(-6,-102) scale(1,1)"><path fill="#C0C0C0" stroke="none" d="M 47 199 L 258.26806640625 199 L 258.26806640625 239 L 47 239 L 57.25 219.5" opacity="0.2"/></g><g transform="translate(-6,-102) scale(1,1)"><path fill="#ffffff" stroke="none" d="M 40 192 L 251.26806640625 192 L 251.26806640625 232 L 40 232 L 50.25 212.5"/></g><g transform="translate(-6,-102) scale(1,1)"><path fill="none" stroke="#000000" d="M 40 192 L 251.26806640625 192 L 251.26806640625 232 L 40 232 L 50.25 212.5 L 40 192" stroke-miterlimit="10"/></g><g transform="translate(-6,-102) scale(1,1)"><g><path fill="none" stroke="none"/><text fill="#000000" stroke="none" font-family="Arial" font-size="13px" font-style="normal" font-weight="bold" text-decoration="none" x="44.5" y="210">cliquer sur supprimer un tableau</text></g></g><g transform="translate(-6,-102) scale(1,1)"><path fill="none" stroke="#000000" d="M 431 163 L 252 194" stroke-miterlimit="10"/></g><g transform="translate(-6,-102) scale(1,1)"><path fill="none" stroke="#000000" d="M 261.2952861322651 188.11802280527036 L 252 194 L 262.7319458183719 196.41357389601598" stroke-miterlimit="10"/></g><g transform="translate(-6,-102) scale(1,1)"><path fill="none" stroke="#000000" d="M 252 215 L 383 218" stroke-miterlimit="10"/></g><g transform="translate(-6,-102) scale(1,1)"><path fill="none" stroke="#000000" d="M 372.74361307509304 221.97574235163668 L 383 218 L 372.9363648778324 213.5589136320181" stroke-miterlimit="10"/></g><g transform="translate(-6,-102) scale(1,1)"><path fill="none" stroke="#000000" d="M 293 279 L 192 233" stroke-miterlimit="10"/></g><g transform="translate(-6,-102) scale(1,1)"><path fill="none" stroke="#000000" d="M 202.99338804089842 233.38133893353717 L 192 233 L 199.5038518860998 241.04314657776897" stroke-miterlimit="10"/></g><g transform="translate(-6,-102) scale(1,1)"><path fill="none" stroke="#000000" d="M 295 589 L 40 592 L 48 280 L 115 233" stroke-miterlimit="10"/></g><g transform="translate(-6,-102) scale(1,1)"><path fill="none" stroke="#000000" d="M 109.09770100527491 242.2823955193079 L 115 233 L 104.26279953888111 235.39008917359757" stroke-miterlimit="10"/></g><g transform="translate(-6,-102) scale(1,1)"><path fill="none" stroke="#000000" d="M 466 307 L 464 344 L 251 364" stroke-miterlimit="10"/></g><g transform="translate(-6,-102) scale(1,1)"><path fill="none" stroke="#000000" d="M 260.72463995457423 358.85885443175374 L 251 364 L 261.51169775085117 367.241019962103" stroke-miterlimit="10"/></g><g transform="translate(-6,-102) scale(1,1)"><g><path fill="none" stroke="none"/><text fill="#000000" stroke="none" font-family="Arial" font-size="13px" font-style="normal" font-weight="normal" text-decoration="none" x="471.5" y="331">ok</text></g></g><g transform="translate(-6,-102) scale(1,1)"><path fill="#C0C0C0" stroke="none" d="M 167 528.5 L 178.5 519 L 189 528.5 L 178.5 537 L 167 528.5" opacity="0.2"/></g><g transform="translate(-6,-102) scale(1,1)"><path fill="#ffffff" stroke="none" d="M 160 521 L 171 512 L 182 521 L 171 530 L 160 521"/></g><g transform="translate(-6,-102) scale(1,1)"><path fill="none" stroke="#000000" d="M 160 521 L 171 512 L 182 521 L 171 530 L 160 521 L 160 521" stroke-miterlimit="10"/></g><g transform="translate(-6,-102) scale(1,1)"><path fill="none" stroke="#000000" d="M 171 481 L 171 511" stroke-miterlimit="10"/></g><g transform="translate(-6,-102) scale(1,1)"><path fill="none" stroke="#000000" d="M 166.790482243984 500.83732514237585 L 171 511 L 175.209517756016 500.83732514237585" stroke-miterlimit="10"/></g><g transform="translate(-6,-102) scale(1,1)"><path fill="none" stroke="#000000" d="M 183 520 L 359 505" stroke-miterlimit="10"/></g><g transform="translate(-6,-102) scale(1,1)"><path fill="none" stroke="#000000" d="M 349.2315043209933 510.0573206512171 L 359 505 L 348.51656473627247 501.6686961904932" stroke-miterlimit="10"/></g><g transform="translate(-6,-102) scale(1,1)"><g><path fill="none" stroke="none"/><text fill="#000000" stroke="none" font-family="Arial" font-size="13px" font-style="normal" font-weight="normal" text-decoration="none" x="190.5" y="515">oui</text></g></g><g transform="translate(-6,-102) scale(1,1)"><path fill="none" stroke="#000000" d="M 159 521 L 80 520 L 150 393" stroke-miterlimit="10"/></g><g transform="translate(-6,-102) scale(1,1)"><path fill="none" stroke="#000000" d="M 148.78095399040276 403.93224253419606 L 150 393 L 141.40774147052934 399.86826712954144" stroke-miterlimit="10"/></g><g transform="translate(-6,-102) scale(1,1)"><g><path fill="none" stroke="none"/><text fill="#000000" stroke="none" font-family="Arial" font-size="13px" font-style="normal" font-weight="normal" text-decoration="none" x="118.5" y="512.5">non</text></g></g></g></svg>