<svg version="1.1" xmlns="http://www.w3.org/2000/svg" xmlns:xlink="http://www.w3.org/1999/xlink" width="849.4599609375" height="556"><defs/><g><text fill="#eeeeee" stroke="none" font-family="Arial" font-size="24px" font-style="normal" font-weight="normal" text-decoration="none" x="0" y="0">UNREGISTERED</text><text fill="#eeeeee" stroke="none" font-family="Arial" font-size="24px" font-style="normal" font-weight="normal" text-decoration="none" x="0" y="30">UNREGISTERED</text><text fill="#eeeeee" stroke="none" font-family="Arial" font-size="24px" font-style="normal" font-weight="normal" text-decoration="none" x="0" y="60">UNREGISTERED</text><text fill="#eeeeee" stroke="none" font-family="Arial" font-size="24px" font-style="normal" font-weight="normal" text-decoration="none" x="0" y="90">UNREGISTERED</text><text fill="#eeeeee" stroke="none" font-family="Arial" font-size="24px" font-style="normal" font-weight="normal" text-decoration="none" x="0" y="120">UNREGISTERED</text><text fill="#eeeeee" stroke="none" font-family="Arial" font-size="24px" font-style="normal" font-weight="normal" text-decoration="none" x="0" y="150">UNREGISTERED</text><text fill="#eeeeee" stroke="none" font-family="Arial" font-size="24px" font-style="normal" font-weight="normal" text-decoration="none" x="0" y="180">UNREGISTERED</text><text fill="#eeeeee" stroke="none" font-family="Arial" font-size="24px" font-style="normal" font-weight="normal" text-decoration="none" x="0" y="210">UNREGISTERED</text><text fill="#eeeeee" stroke="none" font-family="Arial" font-size="24px" font-style="normal" font-weight="normal" text-decoration="none" x="0" y="240">UNREGISTERED</text><text fill="#eeeeee" stroke="none" font-family="Arial" font-size="24px" font-style="normal" font-weight="normal" text-decoration="none" x="0" y="270">UNREGISTERED</text><text fill="#eeeeee" stroke="none" font-family="Arial" font-size="24px" font-style="normal" font-weight="normal" text-decoration="none" x="0" y="300">UNREGISTERED</text><text fill="#eeeeee" stroke="none" font-family="Arial" font-size="24px" font-style="normal" font-weight="normal" text-decoration="none" x="0" y="330">UNREGISTERED</text><text fill="#eeeeee" stroke="none" font-family="Arial" font-size="24px" font-style="normal" font-weight="normal" text-decoration="none" x="0" y="360">UNREGISTERED</text><text fill="#eeeeee" stroke="none" font-family="Arial" font-size="24px" font-style="normal" font-weight="normal" text-decoration="none" x="0" y="390">UNREGISTERED</text><text fill="#eeeeee" stroke="none" font-family="Arial" font-size="24px" font-style="normal" font-weight="normal" text-decoration="none" x="0" y="420">UNREGISTERED</text><text fill="#eeeeee" stroke="none" font-family="Arial" font-size="24px" font-style="normal" font-weight="normal" text-decoration="none" x="0" y="450">UNREGISTERED</text><text fill="#eeeeee" stroke="none" font-family="Arial" font-size="24px" font-style="normal" font-weight="normal" text-decoration="none" x="0" y="480">UNREGISTERED</text><text fill="#eeeeee" stroke="none" font-family="Arial" font-size="24px" font-style="normal" font-weight="normal" text-decoration="none" x="0" y="510">UNREGISTERED</text><text fill="#eeeeee" stroke="none" font-family="Arial" font-size="24px" font-style="normal" font-weight="normal" text-decoration="none" x="0" y="540">UNREGISTERED</text><text fill="#eeeeee" stroke="none" font-family="Arial" font-size="24px" font-style="normal" font-weight="normal" text-decoration="none" x="200" y="0">UNREGISTERED</text><text fill="#eeeeee" stroke="none" font-family="Arial" font-size="24px" font-style="normal" font-weight="normal" text-decoration="none" x="200" y="30">UNREGISTERED</text><text fill="#eeeeee" stroke="none" font-family="Arial" font-size="24px" font-style="normal" font-weight="normal" text-decoration="none" x="200" y="60">UNREGISTERED</text><text fill="#eeeeee" stroke="none" font-family="Arial" font-size="24px" font-style="normal" font-weight="normal" text-decoration="none" x="200" y="90">UNREGISTERED</text><text fill="#eeeeee" stroke="none" font-family="Arial" font-size="24px" font-style="normal" font-weight="normal" text-decoration="none" x="200" y="120">UNREGISTERED</text><text fill="#eeeeee" stroke="none" font-family="Arial" font-size="24px" font-style="normal" font-weight="normal" text-decoration="none" x="200" y="150">UNREGISTERED</text><text fill="#eeeeee" stroke="none" font-family="Arial" font-size="24px" font-style="normal" font-weight="normal" text-decoration="none" x="200" y="180">UNREGISTERED</text><text fill="#eeeeee" stroke="none" font-family="Arial" font-size="24px" font-style="normal" font-weight="normal" text-decoration="none" x="200" y="210">UNREGISTERED</text><text fill="#eeeeee" stroke="none" font-family="Arial" font-size="24px" font-style="normal" font-weight="normal" text-decoration="none" x="200" y="240">UNREGISTERED</text><text fill="#eeeeee" stroke="none" font-family="Arial" font-size="24px" font-style="normal" font-weight="normal" text-decoration="none" x="200" y="270">UNREGISTERED</text><text fill="#eeeeee" stroke="none" font-family="Arial" font-size="24px" font-style="normal" font-weight="normal" text-decoration="none" x="200" y="300">UNREGISTERED</text><text fill="#eeeeee" stroke="none" font-family="Arial" font-size="24px" font-style="normal" font-weight="normal" text-decoration="none" x="200" y="330">UNREGISTERED</text><text fill="#eeeeee" stroke="none" font-family="Arial" font-size="24px" font-style="normal" font-weight="normal" text-decoration="none" x="200" y="360">UNREGISTERED</text><text fill="#eeeeee" stroke="none" font-family="Arial" font-size="24px" font-style="normal" font-weight="normal" text-decoration="none" x="200" y="390">UNREGISTERED</text><text fill="#eeeeee" stroke="none" font-family="Arial" font-size="24px" font-style="normal" font-weight="normal" text-decoration="none" x="200" y="420">UNREGISTERED</text><text fill="#eeeeee" stroke="none" font-family="Arial" font-size="24px" font-style="normal" font-weight="normal" text-decoration="none" x="200" y="450">UNREGISTERED</text><text fill="#eeeeee" stroke="none" font-family="Arial" font-size="24px" font-style="normal" font-weight="normal" text-decoration="none" x="200" y="480">UNREGISTERED</text><text fill="#eeeeee" stroke="none" font-family="Arial" font-size="24px" font-style="normal" font-weight="normal" text-decoration="none" x="200" y="510">UNREGISTERED</text><text fill="#eeeeee" stroke="none" font-family="Arial" font-size="24px" font-style="normal" font-weight="normal" text-decoration="none" x="200" y="540">UNREGISTERED</text><text fill="#eeeeee" stroke="none" font-family="Arial" font-size="24px" font-style="normal" font-weight="normal" text-decoration="none" x="400" y="0">UNREGISTERED</text><text fill="#eeeeee" stroke="none" font-family="Arial" font-size="24px" font-style="normal" font-weight="normal" text-decoration="none" x="400" y="30">UNREGISTERED</text><text fill="#eeeeee" stroke="none" font-family="Arial" font-size="24px" font-style="normal" font-weight="normal" text-decoration="none" x="400" y="60">UNREGISTERED</text><text fill="#eeeeee" stroke="none" font-family="Arial" font-size="24px" font-style="normal" font-weight="normal" text-decoration="none" x="400" y="90">UNREGISTERED</text><text fill="#eeeeee" stroke="none" font-family="Arial" font-size="24px" font-style="normal" font-weight="normal" text-decoration="none" x="400" y="120">UNREGISTERED</text><text fill="#eeeeee" stroke="none" font-family="Arial" font-size="24px" font-style="normal" font-weight="normal" text-decoration="none" x="400" y="150">UNREGISTERED</text><text fill="#eeeeee" stroke="none" font-family="Arial" font-size="24px" font-style="normal" font-weight="normal" text-decoration="none" x="400" y="180">UNREGISTERED</text><text fill="#eeeeee" stroke="none" font-family="Arial" font-size="24px" font-style="normal" font-weight="normal" text-decoration="none" x="400" y="210">UNREGISTERED</text><text fill="#eeeeee" stroke="none" font-family="Arial" font-size="24px" font-style="normal" font-weight="normal" text-decoration="none" x="400" y="240">UNREGISTERED</text><text fill="#eeeeee" stroke="none" font-family="Arial" font-size="24px" font-style="normal" font-weight="normal" text-decoration="none" x="400" y="270">UNREGISTERED</text><text fill="#eeeeee" stroke="none" font-family="Arial" font-size="24px" font-style="normal" font-weight="normal" text-decoration="none" x="400" y="300">UNREGISTERED</text><text fill="#eeeeee" stroke="none" font-family="Arial" font-size="24px" font-style="normal" font-weight="normal" text-decoration="none" x="400" y="330">UNREGISTERED</text><text fill="#eeeeee" stroke="none" font-family="Arial" font-size="24px" font-style="normal" font-weight="normal" text-decoration="none" x="400" y="360">UNREGISTERED</text><text fill="#eeeeee" stroke="none" font-family="Arial" font-size="24px" font-style="normal" font-weight="normal" text-decoration="none" x="400" y="390">UNREGISTERED</text><text fill="#eeeeee" stroke="none" font-family="Arial" font-size="24px" font-style="normal" font-weight="normal" text-decoration="none" x="400" y="420">UNREGISTERED</text><text fill="#eeeeee" stroke="none" font-family="Arial" font-size="24px" font-style="normal" font-weight="normal" text-decoration="none" x="400" y="450">UNREGISTERED</text><text fill="#eeeeee" stroke="none" font-family="Arial" font-size="24px" font-style="normal" font-weight="normal" text-decoration="none" x="400" y="480">UNREGISTERED</text><text fill="#eeeeee" stroke="none" font-family="Arial" font-size="24px" font-style="normal" font-weight="normal" text-decoration="none" x="400" y="510">UNREGISTERED</text><text fill="#eeeeee" stroke="none" font-family="Arial" font-size="24px" font-style="normal" font-weight="normal" text-decoration="none" x="400" y="540">UNREGISTERED</text><text fill="#eeeeee" stroke="none" font-family="Arial" font-size="24px" font-style="normal" font-weight="normal" text-decoration="none" x="600" y="0">UNREGISTERED</text><text fill="#eeeeee" stroke="none" font-family="Arial" font-size="24px" font-style="normal" font-weight="normal" text-decoration="none" x="600" y="30">UNREGISTERED</text><text fill="#eeeeee" stroke="none" font-family="Arial" font-size="24px" font-style="normal" font-weight="normal" text-decoration="none" x="600" y="60">UNREGISTERED</text><text fill="#eeeeee" stroke="none" font-family="Arial" font-size="24px" font-style="normal" font-weight="normal" text-decoration="none" x="600" y="90">UNREGISTERED</text><text fill="#eeeeee" stroke="none" font-family="Arial" font-size="24px" font-style="normal" font-weight="normal" text-decoration="none" x="600" y="120">UNREGISTERED</text><text fill="#eeeeee" stroke="none" font-family="Arial" font-size="24px" font-style="normal" font-weight="normal" text-decoration="none" x="600" y="150">UNREGISTERED</text><text fill="#eeeeee" stroke="none" font-family="Arial" font-size="24px" font-style="normal" font-weight="normal" text-decoration="none" x="600" y="180">UNREGISTERED</text><text fill="#eeeeee" stroke="none" font-family="Arial" font-size="24px" font-style="normal" font-weight="normal" text-decoration="none" x="600" y="210">UNREGISTERED</text><text fill="#eeeeee" stroke="none" font-family="Arial" font-size="24px" font-style="normal" font-weight="normal" text-decoration="none" x="600" y="240">UNREGISTERED</text><text fill="#eeeeee" stroke="none" font-family="Arial" font-size="24px" font-style="normal" font-weight="normal" text-decoration="none" x="600" y="270">UNREGISTERED</text><text fill="#eeeeee" stroke="none" font-family="Arial" font-size="24px" font-style="normal" font-weight="normal" text-decoration="none" x="600" y="300">UNREGISTERED</text><text fill="#eeeeee" stroke="none" font-family="Arial" font-size="24px" font-style="normal" font-weight="normal" text-decoration="none" x="600" y="330">UNREGISTERED</text><text fill="#eeeeee" stroke="none" font-family="Arial" font-size="24px" font-style="normal" font-weight="normal" text-decoration="none" x="600" y="360">UNREGISTERED</text><text fill="#eeeeee" stroke="none" font-family="Arial" font-size="24px" font-style="normal" font-weight="normal" text-decoration="none" x="600" y="390">UNREGISTERED</text><text fill="#eeeeee" stroke="none" font-family="Arial" font-size="24px" font-style="normal" font-weight="normal" text-decoration="none" x="600" y="420">UNREGISTERED</text><text fill="#eeeeee" stroke="none" font-family="Arial" font-size="24px" font-style="normal" font-weight="normal" text-decoration="none" x="600" y="450">UNREGISTERED</text><text fill="#eeeeee" stroke="none" font-family="Arial" font-size="24px" font-style="normal" font-weight="normal" text-decoration="none" x="600" y="480">UNREGISTERED</text><text fill="#eeeeee" stroke="none" font-family="Arial" font-size="24px" font-style="normal" font-weight="normal" text-decoration="none" x="600" y="510">UNREGISTERED</text><text fill="#eeeeee" stroke="none" font-family="Arial" font-size="24px" font-style="normal" font-weight="normal" text-decoration="none" x="600" y="540">UNREGISTERED</text><text fill="#eeeeee" stroke="none" font-family="Arial" font-size="24px" font-style="normal" font-weight="normal" text-decoration="none" x="800" y="0">UNREGISTERED</text><text fill="#eeeeee" stroke="none" font-family="Arial" font-size="24px" font-style="normal" font-weight="normal" text-decoration="none" x="800" y="30">UNREGISTERED</text><text fill="#eeeeee" stroke="none" font-family="Arial" font-size="24px" font-style="normal" font-weight="normal" text-decoration="none" x="800" y="60">UNREGISTERED</text><text fill="#eeeeee" stroke="none" font-family="Arial" font-size="24px" font-style="normal" font-weight="normal" text-decoration="none" x="800" y="90">UNREGISTERED</text><text fill="#eeeeee" stroke="none" font-family="Arial" font-size="24px" font-style="normal" font-weight="normal" text-decoration="none" x="800" y="120">UNREGISTERED</text><text fill="#eeeeee" stroke="none" font-family="Arial" font-size="24px" font-style="normal" font-weight="normal" text-decoration="none" x="800" y="150">UNREGISTERED</text><text fill="#eeeeee" stroke="none" font-family="Arial" font-size="24px" font-style="normal" font-weight="normal" text-decoration="none" x="800" y="180">UNREGISTERED</text><text fill="#eeeeee" stroke="none" font-family="Arial" font-size="24px" font-style="normal" font-weight="normal" text-decoration="none" x="800" y="210">UNREGISTERED</text><text fill="#eeeeee" stroke="none" font-family="Arial" font-size="24px" font-style="normal" font-weight="normal" text-decoration="none" x="800" y="240">UNREGISTERED</text><text fill="#eeeeee" stroke="none" font-family="Arial" font-size="24px" font-style="normal" font-weight="normal" text-decoration="none" x="800" y="270">UNREGISTERED</text><text fill="#eeeeee" stroke="none" font-family="Arial" font-size="24px" font-style="normal" font-weight="normal" text-decoration="none" x="800" y="300">UNREGISTERED</text><text fill="#eeeeee" stroke="none" font-family="Arial" font-size="24px" font-style="normal" font-weight="normal" text-decoration="none" x="800" y="330">UNREGISTERED</text><text fill="#eeeeee" stroke="none" font-family="Arial" font-size="24px" font-style="normal" font-weight="normal" text-decoration="none" x="800" y="360">UNREGISTERED</text><text fill="#eeeeee" stroke="none" font-family="Arial" font-size="24px" font-style="normal" font-weight="normal" text-decoration="none" x="800" y="390">UNREGISTERED</text><text fill="#eeeeee" stroke="none" font-family="Arial" font-size="24px" font-style="normal" font-weight="normal" text-decoration="none" x="800" y="420">UNREGISTERED</text><text fill="#eeeeee" stroke="none" font-family="Arial" font-size="24px" font-style="normal" font-weight="normal" text-decoration="none" x="800" y="450">UNREGISTERED</text><text fill="#eeeeee" stroke="none" font-family="Arial" font-size="24px" font-style="normal" font-weight="normal" text-decoration="none" x="800" y="480">UNREGISTERED</text><text fill="#eeeeee" stroke="none" font-family="Arial" font-size="24px" font-style="normal" font-weight="normal" text-decoration="none" x="800" y="510">UNREGISTERED</text><text fill="#eeeeee" stroke="none" font-family="Arial" font-size="24px" font-style="normal" font-weight="normal" text-decoration="none" x="800" y="540">UNREGISTERED</text><g transform="translate(-78,-118) scale(1,1)"><rect fill="#C0C0C0" stroke="none" x="207" y="135" width="576" height="536" opacity="0.2"/></g><g transform="translate(-78,-118) scale(1,1)"><rect fill="#ffffff" stroke="none" x="200" y="128" width="576" height="536"/></g><g transform="translate(-78,-118) scale(1,1)"><path fill="none" stroke="#000000" d="M 200 128 L 776 128 L 776 664 L 200 664 L 200 128 Z Z" stroke-miterlimit="10"/></g><g transform="translate(-78,-118) scale(1,1)"><g><path fill="none" stroke="none"/><text fill="#000000" stroke="none" font-family="Arial" font-size="13px" font-style="normal" font-weight="bold" text-decoration="none" x="451.412109375" y="146">Site l'artiste</text></g></g><g transform="translate(-78,-118) scale(1,1)"><path fill="#ffffff" stroke="none" d="M 107.54509250710228 321.68 C 107.54509250710228 316.886167936 111.43093483204774 313 116.224365234375 313 C 121.01779563670226 313 124.90363796164772 316.886167936 124.90363796164772 321.68 C 124.90363796164772 326.473832064 121.01779563670226 330.36 116.224365234375 330.36 C 111.43093483204774 330.36 107.54509250710228 326.473832064 107.54509250710228 321.68 Z"/></g><g transform="translate(-78,-118) scale(1,1)"><path fill="none" stroke="#000000" d="M 107.54509250710228 321.68 C 107.54509250710228 316.886167936 111.43093483204774 313 116.224365234375 313 C 121.01779563670226 313 124.90363796164772 316.886167936 124.90363796164772 321.68 C 124.90363796164772 326.473832064 121.01779563670226 330.36 116.224365234375 330.36 C 111.43093483204774 330.36 107.54509250710228 326.473832064 107.54509250710228 321.68 Z" stroke-miterlimit="10"/></g><g transform="translate(-78,-118) scale(1,1)"><path fill="none" stroke="#000000" d="M 116.224365234375 330.36 L 116.224365234375 347.64" stroke-miterlimit="10"/></g><g transform="translate(-78,-118) scale(1,1)"><path fill="none" stroke="#000000" d="M 107.03454705255683 336.84 L 125.41418341619317 336.84" stroke-miterlimit="10"/></g><g transform="translate(-78,-118) scale(1,1)"><path fill="none" stroke="#000000" d="M 116.224365234375 347.64 L 103.46072887073865 365" stroke-miterlimit="10"/></g><g transform="translate(-78,-118) scale(1,1)"><path fill="none" stroke="#000000" d="M 116.224365234375 347.64 L 128.98800159801135 365" stroke-miterlimit="10"/></g><g transform="translate(-78,-118) scale(1,1)"><g><path fill="none" stroke="none"/><text fill="#000000" stroke="none" font-family="Arial" font-size="13px" font-style="normal" font-weight="bold" text-decoration="none" x="92.5" y="384">Visiteur</text></g></g><g transform="translate(-78,-118) scale(1,1)"><path fill="#ffffff" stroke="none" d="M 858.0507077414773 345.68 C 858.0507077414773 340.886167936 861.9365500664227 337 866.72998046875 337 C 871.5234108710773 337 875.4092531960227 340.886167936 875.4092531960227 345.68 C 875.4092531960227 350.473832064 871.5234108710773 354.36 866.72998046875 354.36 C 861.9365500664227 354.36 858.0507077414773 350.473832064 858.0507077414773 345.68 Z"/></g><g transform="translate(-78,-118) scale(1,1)"><path fill="none" stroke="#000000" d="M 858.0507077414773 345.68 C 858.0507077414773 340.886167936 861.9365500664227 337 866.72998046875 337 C 871.5234108710773 337 875.4092531960227 340.886167936 875.4092531960227 345.68 C 875.4092531960227 350.473832064 871.5234108710773 354.36 866.72998046875 354.36 C 861.9365500664227 354.36 858.0507077414773 350.473832064 858.0507077414773 345.68 Z" stroke-miterlimit="10"/></g><g transform="translate(-78,-118) scale(1,1)"><path fill="none" stroke="#000000" d="M 866.72998046875 354.36 L 866.72998046875 371.64" stroke-miterlimit="10"/></g><g transform="translate(-78,-118) scale(1,1)"><path fill="none" stroke="#000000" d="M 857.5401622869318 360.84 L 875.9197986505682 360.84" stroke-miterlimit="10"/></g><g transform="translate(-78,-118) scale(1,1)"><path fill="none" stroke="#000000" d="M 866.72998046875 371.64 L 853.9663441051136 389" stroke-miterlimit="10"/></g><g transform="translate(-78,-118) scale(1,1)"><path fill="none" stroke="#000000" d="M 866.72998046875 371.64 L 879.4936168323864 389" stroke-miterlimit="10"/></g><g transform="translate(-78,-118) scale(1,1)"><g><path fill="none" stroke="none"/><text fill="#000000" stroke="none" font-family="Arial" font-size="13px" font-style="normal" font-weight="bold" text-decoration="none" x="820.5" y="408">Administrateur</text></g></g><g transform="translate(-78,-118) scale(1,1)"><path fill="#C0C0C0" stroke="none" d="M 239 216 C 239 206.6111584 273.2502128 199 315.5 199 C 357.7497872 199 392 206.6111584 392 216 C 392 225.3888416 357.7497872 233 315.5 233 C 273.2502128 233 239 225.3888416 239 216 Z" opacity="0.2"/></g><g transform="translate(-78,-118) scale(1,1)"><path fill="#d8f2ff" stroke="none" d="M 232 209 C 232 199.6111584 266.2502128 192 308.5 192 C 350.7497872 192 385 199.6111584 385 209 C 385 218.3888416 350.7497872 226 308.5 226 C 266.2502128 226 232 218.3888416 232 209 Z"/></g><g transform="translate(-78,-118) scale(1,1)"><path fill="none" stroke="#000000" d="M 232 209 C 232 199.6111584 266.2502128 192 308.5 192 C 350.7497872 192 385 199.6111584 385 209 C 385 218.3888416 350.7497872 226 308.5 226 C 266.2502128 226 232 218.3888416 232 209 Z" stroke-miterlimit="10"/></g><g transform="translate(-78,-118) scale(1,1)"><g><path fill="none" stroke="none"/><text fill="#000000" stroke="none" font-family="Arial" font-size="13px" font-style="normal" font-weight="bold" text-decoration="none" x="259.010498046875" y="214.5">deposer un avis</text></g></g><g transform="translate(-78,-118) scale(1,1)"><path fill="none" stroke="#000000" d="M 145 329 L 284 227" stroke-miterlimit="10"/></g><g transform="translate(-78,-118) scale(1,1)"><path fill="#C0C0C0" stroke="none" d="M 247 304 C 247 294.6111584 298.0395328 287 361 287 C 423.9604672 287 475 294.6111584 475 304 C 475 313.3888416 423.9604672 321 361 321 C 298.0395328 321 247 313.3888416 247 304 Z" opacity="0.2"/></g><g transform="translate(-78,-118) scale(1,1)"><path fill="#d6adff" stroke="none" d="M 240 297 C 240 287.6111584 291.0395328 280 354 280 C 416.9604672 280 468 287.6111584 468 297 C 468 306.3888416 416.9604672 314 354 314 C 291.0395328 314 240 306.3888416 240 297 Z"/></g><g transform="translate(-78,-118) scale(1,1)"><path fill="none" stroke="#000000" d="M 240 297 C 240 287.6111584 291.0395328 280 354 280 C 416.9604672 280 468 287.6111584 468 297 C 468 306.3888416 416.9604672 314 354 314 C 291.0395328 314 240 306.3888416 240 297 Z" stroke-miterlimit="10"/></g><g transform="translate(-78,-118) scale(1,1)"><g><path fill="none" stroke="none"/><text fill="#000000" stroke="none" font-family="Arial" font-size="13px" font-style="normal" font-weight="bold" text-decoration="none" x="277.774169921875" y="302.5">naviguer entre les pages</text></g></g><g transform="translate(-78,-118) scale(1,1)"><path fill="none" stroke="#000000" d="M 145 344 L 275 315" stroke-miterlimit="10"/></g><g transform="translate(-78,-118) scale(1,1)"><path fill="#C0C0C0" stroke="none" d="M 223 368 C 223 358.6111584 292.6197136 351 378.5 351 C 464.3802864 351 534 358.6111584 534 368 C 534 377.3888416 464.3802864 385 378.5 385 C 292.6197136 385 223 377.3888416 223 368 Z" opacity="0.2"/></g><g transform="translate(-78,-118) scale(1,1)"><path fill="#6dceff" stroke="none" d="M 216 361 C 216 351.6111584 285.6197136 344 371.5 344 C 457.3802864 344 527 351.6111584 527 361 C 527 370.3888416 457.3802864 378 371.5 378 C 285.6197136 378 216 370.3888416 216 361 Z"/></g><g transform="translate(-78,-118) scale(1,1)"><path fill="none" stroke="#000000" d="M 216 361 C 216 351.6111584 285.6197136 344 371.5 344 C 457.3802864 344 527 351.6111584 527 361 C 527 370.3888416 457.3802864 378 371.5 378 C 285.6197136 378 216 370.3888416 216 361 Z" stroke-miterlimit="10"/></g><g transform="translate(-78,-118) scale(1,1)"><g><path fill="none" stroke="none"/><text fill="#000000" stroke="none" font-family="Arial" font-size="13px" font-style="normal" font-weight="bold" text-decoration="none" x="266.030517578125" y="366.5">effectuer une demande de contact</text></g></g><g transform="translate(-78,-118) scale(1,1)"><path fill="none" stroke="#000000" d="M 145 352 L 215 355" stroke-miterlimit="10"/></g><g transform="translate(-78,-118) scale(1,1)"><path fill="#C0C0C0" stroke="none" d="M 247 424 C 247 414.6111584 301.6212544 407 369 407 C 436.3787456 407 491 414.6111584 491 424 C 491 433.3888416 436.3787456 441 369 441 C 301.6212544 441 247 433.3888416 247 424 Z" opacity="0.2"/></g><g transform="translate(-78,-118) scale(1,1)"><path fill="#ffd6ad" stroke="none" d="M 240 417 C 240 407.6111584 294.6212544 400 362 400 C 429.3787456 400 484 407.6111584 484 417 C 484 426.3888416 429.3787456 434 362 434 C 294.6212544 434 240 426.3888416 240 417 Z"/></g><g transform="translate(-78,-118) scale(1,1)"><path fill="none" stroke="#000000" d="M 240 417 C 240 407.6111584 294.6212544 400 362 400 C 429.3787456 400 484 407.6111584 484 417 C 484 426.3888416 429.3787456 434 362 434 C 294.6212544 434 240 426.3888416 240 417 Z" stroke-miterlimit="10"/></g><g transform="translate(-78,-118) scale(1,1)"><g><path fill="none" stroke="none"/><text fill="#000000" stroke="none" font-family="Arial" font-size="13px" font-style="normal" font-weight="bold" text-decoration="none" x="280.36279296875" y="422.5">agrandir le dernier tableau</text></g></g><g transform="translate(-78,-118) scale(1,1)"><path fill="none" stroke="#000000" d="M 145 359 L 295 399" stroke-miterlimit="10"/></g><g transform="translate(-78,-118) scale(1,1)"><path fill="#C0C0C0" stroke="none" d="M 255 480 C 255 470.6111584 303.5770992 463 363.5 463 C 423.4229008 463 472 470.6111584 472 480 C 472 489.3888416 423.4229008 497 363.5 497 C 303.5770992 497 255 489.3888416 255 480 Z" opacity="0.2"/></g><g transform="translate(-78,-118) scale(1,1)"><path fill="#91ffec" stroke="none" d="M 248 473 C 248 463.6111584 296.5770992 456 356.5 456 C 416.4229008 456 465 463.6111584 465 473 C 465 482.3888416 416.4229008 490 356.5 490 C 296.5770992 490 248 482.3888416 248 473 Z"/></g><g transform="translate(-78,-118) scale(1,1)"><path fill="none" stroke="#000000" d="M 248 473 C 248 463.6111584 296.5770992 456 356.5 456 C 416.4229008 456 465 463.6111584 465 473 C 465 482.3888416 416.4229008 490 356.5 490 C 296.5770992 490 248 482.3888416 248 473 Z" stroke-miterlimit="10"/></g><g transform="translate(-78,-118) scale(1,1)"><g><path fill="none" stroke="none"/><text fill="#000000" stroke="none" font-family="Arial" font-size="13px" font-style="normal" font-weight="bold" text-decoration="none" x="284.2509765625" y="478.5">Se rendre sur facebook</text></g></g><g transform="translate(-78,-118) scale(1,1)"><path fill="none" stroke="#000000" d="M 145 372 L 216 424 L 305 455" stroke-miterlimit="10"/></g><g transform="translate(-78,-118) scale(1,1)"><path fill="#C0C0C0" stroke="none" d="M 223 528 C 223 518.6111584 276.2781088 511 342 511 C 407.7218912 511 461 518.6111584 461 528 C 461 537.3888416 407.7218912 545 342 545 C 276.2781088 545 223 537.3888416 223 528 Z" opacity="0.2"/></g><g transform="translate(-78,-118) scale(1,1)"><path fill="#ffe2d8" stroke="none" d="M 216 521 C 216 511.6111584 269.2781088 504 335 504 C 400.7218912 504 454 511.6111584 454 521 C 454 530.3888416 400.7218912 538 335 538 C 269.2781088 538 216 530.3888416 216 521 Z"/></g><g transform="translate(-78,-118) scale(1,1)"><path fill="none" stroke="#000000" d="M 216 521 C 216 511.6111584 269.2781088 504 335 504 C 400.7218912 504 454 511.6111584 454 521 C 454 530.3888416 400.7218912 538 335 538 C 269.2781088 538 216 530.3888416 216 521 Z" stroke-miterlimit="10"/></g><g transform="translate(-78,-118) scale(1,1)"><g><path fill="none" stroke="none"/><text fill="#000000" stroke="none" font-family="Arial" font-size="13px" font-style="normal" font-weight="bold" text-decoration="none" x="255.1591796875" y="526.5">naviger entre les tableaux</text></g></g><g transform="translate(-78,-118) scale(1,1)"><path fill="none" stroke="#000000" d="M 140 392 L 192 480 L 272 503" stroke-miterlimit="10"/></g><g transform="translate(-78,-118) scale(1,1)"><path fill="#C0C0C0" stroke="none" d="M 583 264 C 583 254.6111584 621.9512224 247 670 247 C 718.0487776 247 757 254.6111584 757 264 C 757 273.3888416 718.0487776 281 670 281 C 621.9512224 281 583 273.3888416 583 264 Z" opacity="0.2"/></g><g transform="translate(-78,-118) scale(1,1)"><path fill="#ffffff" stroke="none" d="M 576 257 C 576 247.6111584 614.9512224 240 663 240 C 711.0487776 240 750 247.6111584 750 257 C 750 266.3888416 711.0487776 274 663 274 C 614.9512224 274 576 266.3888416 576 257 Z"/></g><g transform="translate(-78,-118) scale(1,1)"><path fill="none" stroke="#000000" d="M 576 257 C 576 247.6111584 614.9512224 240 663 240 C 711.0487776 240 750 247.6111584 750 257 C 750 266.3888416 711.0487776 274 663 274 C 614.9512224 274 576 266.3888416 576 257 Z" stroke-miterlimit="10"/></g><g transform="translate(-78,-118) scale(1,1)"><g><path fill="none" stroke="none"/><text fill="#000000" stroke="none" font-family="Arial" font-size="13px" font-style="normal" font-weight="bold" text-decoration="none" x="605.91552734375" y="262.5">supprimer les avis</text></g></g><g transform="translate(-78,-118) scale(1,1)"><path fill="#C0C0C0" stroke="none" d="M 623 208 C 623 198.6111584 651.4299152 191 686.5 191 C 721.5700848 191 750 198.6111584 750 208 C 750 217.3888416 721.5700848 225 686.5 225 C 651.4299152 225 623 217.3888416 623 208 Z" opacity="0.2"/></g><g transform="translate(-78,-118) scale(1,1)"><path fill="#ffffff" stroke="none" d="M 616 201 C 616 191.6111584 644.4299152 184 679.5 184 C 714.5700848 184 743 191.6111584 743 201 C 743 210.3888416 714.5700848 218 679.5 218 C 644.4299152 218 616 210.3888416 616 201 Z"/></g><g transform="translate(-78,-118) scale(1,1)"><path fill="none" stroke="#000000" d="M 616 201 C 616 191.6111584 644.4299152 184 679.5 184 C 714.5700848 184 743 191.6111584 743 201 C 743 210.3888416 714.5700848 218 679.5 218 C 644.4299152 218 616 210.3888416 616 201 Z" stroke-miterlimit="10"/></g><g transform="translate(-78,-118) scale(1,1)"><g><path fill="none" stroke="none"/><text fill="#000000" stroke="none" font-family="Arial" font-size="13px" font-style="normal" font-weight="bold" text-decoration="none" x="638.947998046875" y="206.5">s'authentifier</text></g></g><g transform="translate(-78,-118) scale(1,1)"><path fill="#C0C0C0" stroke="none" d="M 575 336 C 575 326.6111584 617.532944 319 670 319 C 722.467056 319 765 326.6111584 765 336 C 765 345.3888416 722.467056 353 670 353 C 617.532944 353 575 345.3888416 575 336 Z" opacity="0.2"/></g><g transform="translate(-78,-118) scale(1,1)"><path fill="#ffffff" stroke="none" d="M 568 329 C 568 319.6111584 610.532944 312 663 312 C 715.467056 312 758 319.6111584 758 329 C 758 338.3888416 715.467056 346 663 346 C 610.532944 346 568 338.3888416 568 329 Z"/></g><g transform="translate(-78,-118) scale(1,1)"><path fill="none" stroke="#000000" d="M 568 329 C 568 319.6111584 610.532944 312 663 312 C 715.467056 312 758 319.6111584 758 329 C 758 338.3888416 715.467056 346 663 346 C 610.532944 346 568 338.3888416 568 329 Z" stroke-miterlimit="10"/></g><g transform="translate(-78,-118) scale(1,1)"><g><path fill="none" stroke="none"/><text fill="#000000" stroke="none" font-family="Arial" font-size="13px" font-style="normal" font-weight="bold" text-decoration="none" x="600.1455078125" y="334.5">ajouter des tableaux</text></g></g><g transform="translate(-78,-118) scale(1,1)"><path fill="#C0C0C0" stroke="none" d="M 567 384 C 567 374.6111584 616.0248144 367 676.5 367 C 736.9751856 367 786 374.6111584 786 384 C 786 393.3888416 736.9751856 401 676.5 401 C 616.0248144 401 567 393.3888416 567 384 Z" opacity="0.2"/></g><g transform="translate(-78,-118) scale(1,1)"><path fill="#ffffff" stroke="none" d="M 560 377 C 560 367.6111584 609.0248144 360 669.5 360 C 729.9751856 360 779 367.6111584 779 377 C 779 386.3888416 729.9751856 394 669.5 394 C 609.0248144 394 560 386.3888416 560 377 Z"/></g><g transform="translate(-78,-118) scale(1,1)"><path fill="none" stroke="#000000" d="M 560 377 C 560 367.6111584 609.0248144 360 669.5 360 C 729.9751856 360 779 367.6111584 779 377 C 779 386.3888416 729.9751856 394 669.5 394 C 609.0248144 394 560 386.3888416 560 377 Z" stroke-miterlimit="10"/></g><g transform="translate(-78,-118) scale(1,1)"><g><path fill="none" stroke="none"/><text fill="#000000" stroke="none" font-family="Arial" font-size="13px" font-style="normal" font-weight="bold" text-decoration="none" x="596.530517578125" y="382.5">supprimer des tableaux</text></g></g><g transform="translate(-78,-118) scale(1,1)"><path fill="#C0C0C0" stroke="none" d="M 599 160 C 599 150.6111584 633.697928 143 676.5 143 C 719.302072 143 754 150.6111584 754 160 C 754 169.3888416 719.302072 177 676.5 177 C 633.697928 177 599 169.3888416 599 160 Z" opacity="0.2"/></g><g transform="translate(-78,-118) scale(1,1)"><path fill="#ffffff" stroke="none" d="M 592 153 C 592 143.6111584 626.697928 136 669.5 136 C 712.302072 136 747 143.6111584 747 153 C 747 162.3888416 712.302072 170 669.5 170 C 626.697928 170 592 162.3888416 592 153 Z"/></g><g transform="translate(-78,-118) scale(1,1)"><path fill="none" stroke="#000000" d="M 592 153 C 592 143.6111584 626.697928 136 669.5 136 C 712.302072 136 747 143.6111584 747 153 C 747 162.3888416 712.302072 170 669.5 170 C 626.697928 170 592 162.3888416 592 153 Z" stroke-miterlimit="10"/></g><g transform="translate(-78,-118) scale(1,1)"><g><path fill="none" stroke="none"/><text fill="#000000" stroke="none" font-family="Arial" font-size="13px" font-style="normal" font-weight="bold" text-decoration="none" x="619.286865234375" y="158.5">ajouter les titres</text></g></g><g transform="translate(-78,-118) scale(1,1)"><path fill="none" stroke="#000000" d="M 720 219 L 824 264 L 851 335" stroke-miterlimit="10"/></g><g transform="translate(-78,-118) scale(1,1)"><path fill="none" stroke="#000000" d="M 712 275 L 792 304 L 824 335" stroke-miterlimit="10"/></g><g transform="translate(-78,-118) scale(1,1)"><path fill="none" stroke="#000000" d="M 742 347 L 815 363" stroke-miterlimit="10"/></g><g transform="translate(-78,-118) scale(1,1)"><path fill="none" stroke="#000000" d="M 780 376 L 815 376" stroke-miterlimit="10"/></g><g transform="translate(-78,-118) scale(1,1)"><path fill="#C0C0C0" stroke="none" d="M 479 456 C 479 446.6111584 547.9481408 439 633 439 C 718.0518592 439 787 446.6111584 787 456 C 787 465.3888416 718.0518592 473 633 473 C 547.9481408 473 479 465.3888416 479 456 Z" opacity="0.2"/></g><g transform="translate(-78,-118) scale(1,1)"><path fill="#ffffff" stroke="none" d="M 472 449 C 472 439.6111584 540.9481408 432 626 432 C 711.0518592 432 780 439.6111584 780 449 C 780 458.3888416 711.0518592 466 626 466 C 540.9481408 466 472 458.3888416 472 449 Z"/></g><g transform="translate(-78,-118) scale(1,1)"><path fill="none" stroke="#000000" d="M 472 449 C 472 439.6111584 540.9481408 432 626 432 C 711.0518592 432 780 439.6111584 780 449 C 780 458.3888416 711.0518592 466 626 466 C 540.9481408 466 472 458.3888416 472 449 Z" stroke-miterlimit="10"/></g><g transform="translate(-78,-118) scale(1,1)"><g><path fill="none" stroke="none"/><text fill="#000000" stroke="none" font-family="Arial" font-size="13px" font-style="normal" font-weight="bold" text-decoration="none" x="521.59375" y="454.5">reçevoir les demandes de contact</text></g></g><g transform="translate(-78,-118) scale(1,1)"><path fill="none" stroke="#000000" d="M 684 431 L 815 391" stroke-miterlimit="10"/></g><g transform="translate(-78,-118) scale(1,1)"><path fill="#C0C0C0" stroke="none" d="M 527 528 C 527 518.6111584 581.3973968 511 648.5 511 C 715.6026032 511 770 518.6111584 770 528 C 770 537.3888416 715.6026032 545 648.5 545 C 581.3973968 545 527 537.3888416 527 528 Z" opacity="0.2"/></g><g transform="translate(-78,-118) scale(1,1)"><path fill="#ffffff" stroke="none" d="M 520 521 C 520 511.6111584 574.3973968 504 641.5 504 C 708.6026032 504 763 511.6111584 763 521 C 763 530.3888416 708.6026032 538 641.5 538 C 574.3973968 538 520 530.3888416 520 521 Z"/></g><g transform="translate(-78,-118) scale(1,1)"><path fill="none" stroke="#000000" d="M 520 521 C 520 511.6111584 574.3973968 504 641.5 504 C 708.6026032 504 763 511.6111584 763 521 C 763 530.3888416 708.6026032 538 641.5 538 C 574.3973968 538 520 530.3888416 520 521 Z" stroke-miterlimit="10"/></g><g transform="translate(-78,-118) scale(1,1)"><g><path fill="none" stroke="none"/><text fill="#000000" stroke="none" font-family="Arial" font-size="13px" font-style="normal" font-weight="bold" text-decoration="none" x="560.227783203125" y="526.5">modifier le dernier tableau</text></g></g><g transform="translate(-78,-118) scale(1,1)"><path fill="none" stroke="#000000" d="M 764 510 L 824 504 L 853 416" stroke-miterlimit="10"/></g><g transform="translate(-78,-118) scale(1,1)"><path fill="none" stroke="#000000" d="M 710 171 L 848 232 L 861 335" stroke-miterlimit="10"/></g></g></svg>